<svg xmlns="http://www.w3.org/2000/svg" viewBox="0 0 288.88 372.04"><g id="Layer_1" data-name="Layer 1"><path fill="#fff" d="M285.36,292.56V393.32q0,19.26-15.26,30.31t-39.75,11.06H174.43V121.13h58.34q23.26,0,37.93,11.29T285.36,162v85.06h42V159.16q0-29.47-24.49-48.37t-62.27-18.9H132.41v372H240.62q37.49,0,62.12-18.9t24.64-48.38V292.56Z" transform="translate(-132.41 -91.89)"/></g><g id="Layer_3" data-name="Layer 3"><path fill="#fff" d="M361.27,299c-1.37-18.91-2.72-38.85-3.35-57.61l-28.22,14H265.12c.05,9.71.82,19.16,1.29,28.77h63.94Z" transform="translate(-132.41 -91.89)"/><path fill="#fff" d="M232.77,129.49h-14.4V426.33h12c13.47,0,24.54-2.81,33-8.27V284.21h4.13c-.48-9.61-.64-19.06-.68-28.77h-3.45V137.49C255.39,132.2,245.14,129.49,232.77,129.49Z" transform="translate(-132.41 -91.89)"/><path fill="#fff" d="M404.46,287.3l-38.19-18.07,35.6-15.69q18.12-10,18.12-24.72V118.27q0-11.64-10-19t-25.89-7.37H286.62A92.22,92.22,0,0,1,308,104.17a75.65,75.65,0,0,1,16.29,17h50.39v112L357,241.87c.63,18.75,2,37.81,3.33,56.72L376,306.08V434.69H324.23a76,76,0,0,1-16.4,17,93.44,93.44,0,0,1-21.42,12.27h98.95q15.86,0,25.89-7.37t10-19V311.07Q421.28,294.9,404.46,287.3Z" transform="translate(-132.41 -91.89)"/></g></svg>